<?xml version="1.0" standalone="no"?><!DOCTYPE svg PUBLIC "-//W3C//DTD SVG 1.1//EN" "http://www.w3.org/Graphics/SVG/1.1/DTD/svg11.dtd"><svg t="1624269389144" class="icon" viewBox="0 0 1184 1024" version="1.1" xmlns="http://www.w3.org/2000/svg" p-id="3167" xmlns:xlink="http://www.w3.org/1999/xlink" width="46" height="40"><defs><style type="text/css"></style></defs><path d="M240 0h-192C20.192 0 0 20.192 0 48v928c0 27.808 20.192 48 48 48h1088c27.808 0 48-20.192 48-48v-928c0-27.808-20.192-48-48-48h-896zM32 976v-928c0-10.016 5.984-16 16-16H224v960H48c-10.016 0-16-5.984-16-16z m224 16V32h672v960H256zM1152 48v928c0 10.016-5.984 16-16 16H960V32h176c10.016 0 16 5.984 16 16z" fill="#828282" p-id="3168"></path><path d="M472.864 322.688a16.064 16.064 0 0 0-16.448-0.8 16.064 16.064 0 0 0-8.416 14.112v384a16 16 0 0 0 24.864 13.312l288-192a16.032 16.032 0 0 0 0-26.624l-288-192zM480 690.112V365.888l243.168 162.112L480 690.112zM160 256H96a16 16 0 0 0 0 32h64a16 16 0 0 0 0-32zM96 160h64a16 16 0 0 0 0-32H96a16 16 0 0 0 0 32zM160 384H96a16 16 0 0 0 0 32h64a16 16 0 0 0 0-32zM160 512H96a16 16 0 0 0 0 32h64a16 16 0 0 0 0-32zM160 640H96a16 16 0 0 0 0 32h64a16 16 0 0 0 0-32zM160 768H96a16 16 0 0 0 0 32h64a16 16 0 0 0 0-32zM160 896H96a16 16 0 0 0 0 32h64a16 16 0 0 0 0-32zM1024 288h64a16 16 0 0 0 0-32h-64a16 16 0 0 0 0 32zM1024 160h64a16 16 0 0 0 0-32h-64a16 16 0 0 0 0 32zM1024 416h64a16 16 0 0 0 0-32h-64a16 16 0 0 0 0 32zM1024 544h64a16 16 0 0 0 0-32h-64a16 16 0 0 0 0 32zM1024 672h64a16 16 0 0 0 0-32h-64a16 16 0 0 0 0 32zM1024 800h64a16 16 0 0 0 0-32h-64a16 16 0 0 0 0 32zM1088 896h-64a16 16 0 0 0 0 32h64a16 16 0 0 0 0-32z" fill="#828282" p-id="3169"></path></svg>